HIERARCHY
ROOT pelvis
{
OFFSET 0 0 0
CHANNELS 6 Xposition Yposition Zposition Xrotation Yrotation Zrotation
JOINT lfemur
{
OFFSET 0 104.741 0
CHANNELS 3 Xrotation Yrotation Zrotation
JOINT ltibia
{
OFFSET 0 0 -417.27
CHANNELS 3 Xrotation Yrotation Zrotation
JOINT lfoot
{
OFFSET 0 0 -429.744
CHANNELS 3 Xrotation Yrotation Zrotation
JOINT ltoes
{
OFFSET 122.101 0 0
CHANNELS 3 Xrotation Yrotation Zrotation
JOINT ltoe_EF
{
OFFSET 52.435 0 0
CHANNELS 3 Xrotation Yrotation Zrotation
End Site
{
OFFSET 52.435 0 0
}
}
}
}
}
}
JOINT rfemur
{
OFFSET 0 -104.741 0
CHANNELS 3 Xrotation Yrotation Zrotation
JOINT rtibia
{
OFFSET 0 0 -417.27
CHANNELS 3 Xrotation Yrotation Zrotation
JOINT rfoot
{
OFFSET 0 0 -420.802
CHANNELS 3 Xrotation Yrotation Zrotation
JOINT rtoes
{
OFFSET 145.971 0 0
CHANNELS 3 Xrotation Yrotation Zrotation
JOINT rtoe_EF
{
OFFSET 20.2604 0 0
CHANNELS 3 Xrotation Yrotation Zrotation
End Site
{
OFFSET 20.2604 0 0
}
}
}
}
}
}
JOINT thorax
{
OFFSET 0 0 192.451
CHANNELS 3 Xrotation Yrotation Zrotation
JOINT lclavicle
{
OFFSET 61.9711 0 353.504
CHANNELS 3 Xrotation Yrotation Zrotation
JOINT lhumerus
{
OFFSET -61.9711 177.235 27.1679
CHANNELS 3 Xrotation Yrotation Zrotation
JOINT lradius
{
OFFSET 0 0 -288.663
CHANNELS 3 Xrotation Yrotation Zrotation
JOINT lhand
{
OFFSET 0 0 -248.805
CHANNELS 3 Xrotation Yrotation Zrotation
End Site
{
OFFSET 0 0 -248.805
}
}
}
}
}
JOINT rclavicle
{
OFFSET 61.9711 0 353.504
CHANNELS 3 Xrotation Yrotation Zrotation
JOINT rhumerus
{
OFFSET -61.9711 -177.235 27.1679
CHANNELS 3 Xrotation Yrotation Zrotation
JOINT rradius
{
OFFSET 0 0 -288.663
CHANNELS 3 Xrotation Yrotation Zrotation
JOINT rhand
{
OFFSET 0 0 -248.805
CHANNELS 3 Xrotation Yrotation Zrotation
End Site
{
OFFSET 0 0 -248.805
}
}
}
}
}
JOINT Neck_Root
{
OFFSET 0 0 348.975
CHANNELS 3 Xrotation Yrotation Zrotation
JOINT head
{
OFFSET 34.2596 -9.05976 100.79
CHANNELS 3 Xrotation Yrotation Zrotation
End Site
{
OFFSET 34.2596 -9.05976 100.79
}
}
}
}
}
MOTION
Frames: 5
Frame Time: 0.00833333
-112.746582 210.854370 948.584900 -2.401539 3.438668 5.589479 4.417582 -7.773506 26.231832 -0.000000 13.892397 0.000003 -2.799630 10.989435 -2.217323 -0.000000 -8.763690 0.000001 0.000000 0.000000 0.000000 -2.388828 -7.710123 -24.932192 -0.000000 8.180119 -0.000001 -2.245112 20.732741 -1.305918 0.000000 -7.512661 0.000001 0.000000 0.000000 0.000000 -2.447945 -3.953391 4.245320 -16.674932 -0.000000 -0.108635 57.715506 0.622500 -4.042053 -0.000001 -46.377915 66.859367 -50.007271 6.484261 -0.000001 19.592280 0.000000 -2.000493 -59.152427 8.388045 0.665494 0.000004 -67.019015 -27.335772 13.602015 -4.035675 0.000001 0.000000 0.000000 0.000000 -2.106839 -1.896821 0.962864 
-112.738518 210.809708 948.194641 -2.353442 3.319743 5.515757 4.434330 -7.734530 26.269896 -0.000001 14.107533 0.000005 -2.764372 10.826027 -2.198581 -0.000000 -8.758683 -0.000000 0.000000 0.000000 0.000000 -2.468803 -7.756392 -24.780157 -0.000000 8.511242 -0.000003 -2.382012 20.519530 -1.397111 0.000000 -7.633329 0.000001 0.000000 0.000000 0.000000 -2.462664 -3.867931 4.261488 -17.225227 0.000001 -0.329967 57.402454 0.247954 -5.579893 -0.000008 -45.224955 66.854621 -49.697482 6.820717 0.000001 20.076431 -0.000001 -1.929267 -58.820378 7.797110 2.135762 -0.000002 -65.933886 -25.468566 12.905567 -3.477473 -0.000001 0.000000 0.000000 0.000000 -1.410793 -1.672647 0.510243 
-112.736664 210.832794 947.798523 -2.302472 3.204815 5.435086 4.441610 -7.689264 26.311155 0.000000 14.301444 -0.000001 -2.735559 10.681972 -2.183655 -0.000001 -8.796029 -0.000002 0.000000 0.000000 0.000000 -2.556235 -7.812207 -24.625879 -0.000000 8.854315 -0.000000 -2.513527 20.303678 -1.486588 0.000000 -7.634329 0.000003 0.000000 0.000000 0.000000 -2.459584 -3.783111 4.258208 -17.592482 0.000000 -0.498008 56.777365 0.102275 -7.155332 -0.000012 -45.826038 75.186962 -42.493093 11.882657 0.000008 20.522224 0.000000 -1.851743 -58.460400 7.141297 3.686517 0.000005 -64.711754 -24.233821 12.704293 -3.363128 0.000000 0.000000 0.000000 0.000000 -0.765024 -1.464850 0.081518 
-112.762711 210.830704 947.429260 -2.255505 3.103761 5.354555 4.455759 -7.668847 26.350421 0.000000 14.516050 0.000000 -2.689005 10.529742 -2.154752 0.000000 -8.800334 -0.000004 -0.000000 -0.000000 -0.000000 -2.638295 -7.881134 -24.477030 -0.000000 9.185319 0.000002 -2.637103 20.104255 -1.571621 0.000000 -7.706474 0.000001 0.000000 0.000000 0.000000 -2.470297 -3.715936 4.238691 -18.084067 0.000000 -0.629455 56.326058 -0.416357 -8.726082 0.000001 -44.490767 75.643185 -42.285610 12.245266 0.000005 20.925606 -0.000000 -1.632892 -58.000381 6.627216 5.194856 0.000010 -63.376433 -23.330495 12.682025 -3.674208 0.000001 0.000000 0.000000 0.000000 -0.085446 -1.261661 -0.340116 
-112.788979 210.826202 947.084717 -2.209220 2.994583 5.275258 4.470430 -7.631850 26.405522 0.000000 14.713887 -0.000001 -2.668828 10.389882 -2.146152 0.000001 -8.807694 0.000001 0.000000 0.000000 0.000000 -2.715110 -7.934241 -24.325174 0.000000 9.503605 0.000001 -2.759921 19.906676 -1.657197 0.000000 -7.718133 0.000000 0.000000 0.000000 0.000000 -2.471569 -3.636092 4.212814 -18.526775 0.000000 -0.785322 55.795748 -0.838292 -10.105624 -0.000008 -43.124198 74.848003 -42.070848 12.394787 -0.000004 21.388173 0.000000 -1.503273 -57.628080 5.975550 6.742604 0.000009 -61.964601 -22.508343 12.728689 -4.126530 0.000002 0.000000 0.000000 0.000000 0.556013 -1.065752 -0.771556 
